<svg width="147" height="95" viewBox="0 0 147 95" fill="none" xmlns="http://www.w3.org/2000/svg">
<path d="M8.45455 93V23.1818H32.0455C37.5 23.1818 41.9773 24.1136 45.4773 25.9773C48.9773 27.8182 51.5682 30.3523 53.25 33.5795C54.9318 36.8068 55.7727 40.4773 55.7727 44.5909C55.7727 48.7045 54.9318 52.3523 53.25 55.5341C51.5682 58.7159 48.9886 61.2159 45.5114 63.0341C42.0341 64.8295 37.5909 65.7273 32.1818 65.7273H13.0909V58.0909H31.9091C35.6364 58.0909 38.6364 57.5455 40.9091 56.4545C43.2045 55.3636 44.8636 53.8182 45.8864 51.8182C46.9318 49.7955 47.4545 47.3864 47.4545 44.5909C47.4545 41.7955 46.9318 39.3523 45.8864 37.2614C44.8409 35.1705 43.1705 33.5568 40.875 32.4205C38.5795 31.2614 35.5455 30.6818 31.7727 30.6818H16.9091V93H8.45455ZM41.3182 61.6364L58.5 93H48.6818L31.7727 61.6364H41.3182ZM90.1619 94.0909C85.1165 94.0909 80.7642 92.9773 77.1051 90.75C73.4688 88.5 70.6619 85.3636 68.6847 81.3409C66.7301 77.2955 65.7528 72.5909 65.7528 67.2273C65.7528 61.8636 66.7301 57.1364 68.6847 53.0455C70.6619 48.9318 73.4119 45.7273 76.9347 43.4318C80.4801 41.1136 84.6165 39.9545 89.3438 39.9545C92.071 39.9545 94.7642 40.4091 97.4233 41.3182C100.082 42.2273 102.503 43.7045 104.685 45.75C106.866 47.7727 108.605 50.4545 109.901 53.7955C111.196 57.1364 111.844 61.25 111.844 66.1364V69.5455H71.4801V62.5909H103.662C103.662 59.6364 103.071 57 101.889 54.6818C100.73 52.3636 99.071 50.5341 96.9119 49.1932C94.7756 47.8523 92.2528 47.1818 89.3438 47.1818C86.1392 47.1818 83.3665 47.9773 81.0256 49.5682C78.7074 51.1364 76.9233 53.1818 75.6733 55.7045C74.4233 58.2273 73.7983 60.9318 73.7983 63.8182V68.4545C73.7983 72.4091 74.4801 75.7614 75.8438 78.5114C77.2301 81.2386 79.1506 83.3182 81.6051 84.75C84.0597 86.1591 86.9119 86.8636 90.1619 86.8636C92.2756 86.8636 94.1847 86.5682 95.8892 85.9773C97.6165 85.3636 99.1051 84.4545 100.355 83.25C101.605 82.0227 102.571 80.5 103.253 78.6818L111.026 80.8636C110.207 83.5 108.832 85.8182 106.901 87.8182C104.969 89.7955 102.582 91.3409 99.7415 92.4545C96.9006 93.5455 93.7074 94.0909 90.1619 94.0909Z" fill="#2B2525"/>
<path d="M129.946 93.5455C128.264 93.5455 126.821 92.9432 125.616 91.7386C124.412 90.5341 123.81 89.0909 123.81 87.4091C123.81 85.7273 124.412 84.2841 125.616 83.0795C126.821 81.875 128.264 81.2727 129.946 81.2727C131.628 81.2727 133.071 81.875 134.276 83.0795C135.48 84.2841 136.082 85.7273 136.082 87.4091C136.082 88.5227 135.798 89.5455 135.23 90.4773C134.685 91.4091 133.946 92.1591 133.014 92.7273C132.105 93.2727 131.082 93.5455 129.946 93.5455Z" fill="#EBB938"/>
</svg>
